<?xml version="1.0" standalone="no"?>
<!DOCTYPE svg PUBLIC "-//W3C//DTD SVG 20010904//EN"
 "http://www.w3.org/TR/2001/REC-SVG-20010904/DTD/svg10.dtd">
<svg version="1.0" xmlns="http://www.w3.org/2000/svg"
 width="186.000000pt" height="186.000000pt" viewBox="0 0 186.000000 186.000000"
 preserveAspectRatio="xMidYMid meet">
<metadata>
Created by potrace 1.14, written by Peter Selinger 2001-2017
</metadata>
<g transform="translate(0.000000,186.000000) scale(0.100000,-0.100000)"
fill="#000000" stroke="none">
<path d="M42 1416 c-44 -25 -56 -87 -23 -127 15 -19 31 -24 97 -29 44 -4 68
-8 54 -9 -33 -2 -86 -34 -101 -63 -14 -26 -21 -428 -8 -487 9 -41 38 -72 82
-88 31 -11 29 -12 -31 -12 -53 -1 -67 -5 -87 -26 -31 -30 -33 -82 -5 -113 12
-12 26 -23 33 -23 59 -7 1738 -3 1756 3 55 20 69 91 26 133 -20 21 -35 25 -82
26 -53 1 -55 2 -23 9 19 5 45 20 57 34 31 36 19 69 -66 175 l-69 88 43 37 c47
38 69 87 61 133 -2 15 -5 33 -5 40 -2 24 -64 83 -109 103 -26 12 -69 25 -97
29 -39 7 -14 9 108 10 154 1 159 2 182 26 45 44 23 132 -32 136 -90 7 -1748 2
-1761 -5z m997 -166 c-40 -12 -75 -38 -87 -65 -16 -35 -17 -506 -2 -536 7 -11
26 -27 43 -34 29 -13 13 -14 -153 -14 l-185 0 77 23 c129 38 178 90 178 189 0
49 -4 59 -39 98 l-39 44 19 27 c11 14 22 46 25 70 15 105 -77 181 -241 201
-16 2 74 4 200 5 127 0 218 -3 204 -8z m-410 -170 c27 -14 26 -24 -4 -40 -17
-9 -73 -14 -185 -15 l-160 -1 0 36 0 35 164 -2 c99 -1 173 -6 185 -13z m881 0
c26 -14 22 -31 -14 -48 -27 -14 -308 -24 -324 -12 -10 7 -10 63 0 70 14 11
317 1 338 -10z m-864 -235 c43 -18 43 -43 -1 -64 -22 -11 -74 -15 -195 -15
l-165 -1 -3 48 -3 47 166 0 c124 0 175 -4 201 -15z m759 1 c37 -7 79 -49 142
-142 48 -71 70 -91 103 -97 14 -2 -110 -5 -275 -6 -292 -1 -299 0 -265 17 48
23 56 46 55 145 -2 80 0 86 19 89 34 5 184 1 221 -6z"/>
</g>
</svg>
